<?xml version="1.0" ?>
<!-- Uploaded to: SVG Repo, www.svgrepo.com, Generator: SVG Repo Mixer Tools -->
<svg width="800px" height="800px" viewBox="0 0 64 64" id="TwoTone" xmlns="http://www.w3.org/2000/svg">
<title/>
<desc/>
<g data-name="Stroke copy 3" id="Stroke_copy_3">
<polygon points="42 59 38 56 34 59 34 49 42 49 42 59" style="fill:#cff09e"/>
<path d="M19.45,51H50V45H12a4,4,0,0,0-4,4v8a4,4,0,0,0,4,4H50V57H15V55.45A4.45,4.45,0,0,1,19.45,51Z" style="fill:#79bd9a"/>
<path d="M14,49H50a0,0,0,0,1,0,0v8a0,0,0,0,1,0,0H14a2,2,0,0,1-2-2V51A2,2,0,0,1,14,49Z" style="fill:#cff09e"/>
<polygon points="43 57 39 54 35 57 35 49 43 49 43 57" style="fill:#a8dba8"/>
<path d="M11,11H43a4,4,0,0,1,4,4v6a4,4,0,0,1-4,4H11a0,0,0,0,1,0,0V11A0,0,0,0,1,11,11Z" style="fill:#79bd9a"/>
<path d="M11,14H42a1,1,0,0,1,1,1v6a1,1,0,0,1-1,1H11a0,0,0,0,1,0,0V14A0,0,0,0,1,11,14Z" style="fill:#a8dba8"/>
<path d="M21,25H19a4,4,0,0,0,0,8H53V29H25A4,4,0,0,1,21,25Z" style="fill:#cff09e"/>
<path d="M20,33H19a6,6,0,0,0,0,12H45V35H22A2,2,0,0,1,20,33Z" style="fill:#cff09e"/>
<path d="M20,36H45a0,0,0,0,1,0,0v6a0,0,0,0,1,0,0H20a3,3,0,0,1-3-3v0A3,3,0,0,1,20,36Z" style="fill:#a8dba8"/>
<path d="M19,3H14v8H54a2,2,0,0,0,2-2V7H23A4,4,0,0,1,19,3Z" style="fill:#cff09e"/>
<polygon points="27 15 24 12 21 15 21 7 27 7 27 15" style="fill:#a8dba8"/>
</g>
<g data-name="Stroke Close copy 3" id="Stroke_Close_copy_3">
<path d="M14,48a1,1,0,0,0,0,2H34v2H14a1,1,0,0,0,0,2H34v3a1,1,0,0,0,1.6.8L39,55.25l3.4,2.55a1,1,0,0,0,1.05.09A1,1,0,0,0,44,57V54h2a1,1,0,0,0,0-2H44V50h2a1,1,0,0,0,0-2Zm28,7-2.4-1.8a1,1,0,0,0-1.2,0L36,55V50h6Z" style="fill:#3b8686"/>
<path d="M29,56H14a1,1,0,0,0,0,2H29a1,1,0,0,0,0-2Z" style="fill:#3b8686"/>
<path d="M24,28H20a1,1,0,0,0,0,2h4a1,1,0,0,0,0-2Z" style="fill:#3b8686"/>
<path d="M31,28H28a1,1,0,0,0,0,2h3a1,1,0,0,0,0-2Z" style="fill:#3b8686"/>
<path d="M33,19H30a1,1,0,0,0,0,2h3a1,1,0,0,0,0-2Z" style="fill:#3b8686"/>
<path d="M41,19H37a1,1,0,0,0,0,2h4a1,1,0,0,0,0-2Z" style="fill:#3b8686"/>
<path d="M34,8H52a1,1,0,0,0,0-2H34a1,1,0,0,0,0,2Z" style="fill:#3b8686"/>
<path d="M57,9V5a3,3,0,0,0-3-3H14a1,1,0,0,0-1,1v7H8a1,1,0,0,0,0,2h2V24H8a1,1,0,0,0,0,2h7a4.91,4.91,0,0,0,.75,6.79A7,7,0,0,0,14.11,44H12a5,5,0,0,0-5,5v8a5,5,0,0,0,5,5H50a1,1,0,0,0,1-1V45a1,1,0,0,0-1-1H46V34H56a1,1,0,0,0,0-2H54V26h2a1,1,0,0,0,0-2H47a4.92,4.92,0,0,0,1-3V15a4.92,4.92,0,0,0-1-3h7A3,3,0,0,0,57,9ZM15,4H54a1,1,0,0,1,1,1V9a1,1,0,0,1-1,1H28V8h2a1,1,0,0,0,0-2H19a1,1,0,0,0,0,2h1v2H15ZM12,14V12h8v2Zm14-2-1.2-1.6a1,1,0,0,0-1.6,0L22,12V8h4Zm-2,.67L25,14H23ZM49,60H12a3,3,0,0,1-3-3V49a3,3,0,0,1,3-3H49ZM44,36H19a1,1,0,0,0,0,2H44v2H19a1,1,0,0,0,0,2H44v2H19a5,5,0,0,1,0-10H44Zm8-8H35a1,1,0,0,0,0,2H52v2H19a3,3,0,0,1,0-6H52ZM46,15v6a3,3,0,0,1-3,3H12V21H26a1,1,0,0,0,0-2H12V16H42a1,1,0,0,0,0-2H28V12H43A3,3,0,0,1,46,15Z" style="fill:#3b8686"/>
</g>
</svg>